<svg xmlns="http://www.w3.org/2000/svg" viewBox="0 0 64 64">
  <path
    d="M19.033 9.268A5.767 5.767 0 1 0 24.801 3.5a5.773 5.773 0 0 0-5.768 5.768zm8.534 0A2.767 2.767 0 1 1 24.801 6.5a2.77 2.77 0 0 1 2.766 2.768zm-2.766 20.921a5.767 5.767 0 1 0-5.768-5.766 5.773 5.773 0 0 0 5.768 5.766zm0-8.534a2.767 2.767 0 1 1-2.768 2.768 2.77 2.77 0 0 1 2.768-2.768zm0 23.69a5.767 5.767 0 1 0-5.768-5.768 5.773 5.773 0 0 0 5.768 5.768zm0-8.534a2.767 2.767 0 1 1-2.768 2.766 2.77 2.77 0 0 1 2.768-2.766zm0 23.689a5.767 5.767 0 1 0-5.768-5.768 5.773 5.773 0 0 0 5.768 5.768zm0-8.534a2.767 2.767 0 1 1-2.768 2.766 2.77 2.77 0 0 1 2.768-2.766zM39.199 3.5a5.767 5.767 0 1 0 5.768 5.768A5.773 5.773 0 0 0 39.199 3.5zm0 8.534a2.767 2.767 0 1 1 2.768-2.766 2.77 2.77 0 0 1-2.768 2.766zm0 6.621a5.767 5.767 0 1 0 5.768 5.768 5.773 5.773 0 0 0-5.768-5.768zm0 8.534a2.767 2.767 0 1 1 2.768-2.766 2.77 2.77 0 0 1-2.768 2.766zm0 6.622a5.767 5.767 0 1 0 5.768 5.766 5.773 5.773 0 0 0-5.768-5.766zm0 8.534a2.767 2.767 0 1 1 2.768-2.768 2.77 2.77 0 0 1-2.768 2.768zm0 6.62a5.767 5.767 0 1 0 5.768 5.767 5.773 5.773 0 0 0-5.768-5.766zm0 8.535a2.767 2.767 0 1 1 2.768-2.768 2.77 2.77 0 0 1-2.768 2.768z"
  />
</svg>
