<svg xmlns="http://www.w3.org/2000/svg" viewBox="0 0 48 48"><path d="m19.828 40 2.586 2.586a2 2 0 0 1-2.828 2.828l-6-6a2 2 0 0 1 0-2.828l6-6a2 2 0 0 1 2.828 2.828L19.828 36h10.167C36.622 36 42 30.625 42 24c0-3.05-.875-5.727-2.536-7.72a2 2 0 1 1 3.072-2.56C44.827 16.466 46 20.054 46 24c0 8.835-7.17 16-16.005 16zm8.344-32-2.586-2.586a2 2 0 0 1 2.828-2.828l6 6a2 2 0 0 1 0 2.828l-6 6a2 2 0 0 1-2.828-2.828L28.172 12H18.005C11.378 12 6 17.375 6 24c0 3.05.875 5.727 2.536 7.72a2 2 0 0 1-3.072 2.56C3.173 31.534 2 27.946 2 24 2 15.165 9.17 8 18.005 8z"/></svg>