<svg xmlns="http://www.w3.org/2000/svg" viewBox="0 0 16 16"><path fill="currentColor" d="m2.784 2.089.07.057 11 11a.5.5 0 0 1-.638.765l-.07-.057-2.015-2.016a4 4 0 0 1-.897.155L10 12H6.707l1.148 1.148a.5.5 0 0 1 .058.638l-.058.07a.5.5 0 0 1-.638.057l-.069-.058-2.002-2.001a.5.5 0 0 1-.057-.638l.057-.07 2.002-2.001a.5.5 0 0 1 .765.638l-.058.069-1.148 1.147L10 11q.141 0 .279-.013L4.626 5.332a3 3 0 0 0-.765 4.772.5.5 0 0 1-.714.698 3.997 3.997 0 0 1 .746-6.203L2.146 2.854a.5.5 0 0 1 .638-.765m9.716 2.96c.123 0 .235.044.322.117l.071.072A3.99 3.99 0 0 1 14 8a3.99 3.99 0 0 1-1.12 2.775l-.706-.708A3 3 0 0 0 13 8a3 3 0 0 0-.866-2.109.5.5 0 0 1 .366-.843M8.146 2.145a.5.5 0 0 1 .638-.058l.07.058 2.001 2.001.058.07a.5.5 0 0 1 0 .568l-.058.07L8.907 6.8 8.2 6.093 9.294 5H7.105l-1-1h3.189L8.146 2.852l-.057-.07a.5.5 0 0 1 .057-.637"/></svg>