<svg xmlns="http://www.w3.org/2000/svg" viewBox="0 0 5500 4000"><circle cx="2750" cy="2000" r="1389.694" fill="#f8fcfe"/><circle cx="2750" cy="2000" r="1153.397" fill="#dfecfa"/><path fill="#9ebee5" d="M2194.695 3253.11q-.091 0-.183-.004-5.012-.181-10.026-.396a5 5 0 1 1 .428-9.99q4.98.212 9.958.392a5 5 0 0 1-.177 9.997M2154.773 3251.127q-.16 0-.32-.01c-6.602-.417-13.321-.887-19.972-1.395a5 5 0 0 1 .764-9.971c6.606.506 13.28.972 19.839 1.386a5 5 0 0 1-.311 9.99m-49.731-3.97q-.241 0-.486-.024c-6.61-.638-13.311-1.33-19.917-2.054a5 5 0 0 1 1.092-9.941c6.562.72 13.219 1.408 19.786 2.042a5 5 0 0 1-.475 9.976m-49.58-5.606a5 5 0 0 1-.649-.042c-6.586-.853-13.26-1.762-19.84-2.7a5 5 0 1 1 1.412-9.9c6.538.933 13.17 1.835 19.713 2.684a5 5 0 0 1-.636 9.958m-49.38-7.21a5 5 0 0 1-.808-.066c-6.556-1.066-13.2-2.19-19.746-3.339a5 5 0 0 1 1.73-9.85 1566 1566 0 0 0 19.62 3.318 5 5 0 0 1-.796 9.937m-49.131-8.793a5 5 0 0 1-.965-.094 1598 1598 0 0 1-19.633-3.967 5 5 0 0 1 2.042-9.789 1594 1594 0 0 0 19.51 3.942 5 5 0 0 1-.954 9.908m-48.836-10.348a5 5 0 0 1-1.118-.127c-6.48-1.48-13.04-3.023-19.5-4.585a5 5 0 1 1 2.35-9.72 1598 1598 0 0 0 19.378 4.557 5 5 0 0 1-1.11 9.875m-48.493-11.882a5 5 0 0 1-1.27-.164 1609 1609 0 0 1-19.35-5.194 5 5 0 0 1 2.652-9.642 1586 1586 0 0 0 19.23 5.162 5 5 0 0 1-1.262 9.838m-48.107-13.394a5 5 0 0 1-1.418-.206 1593 1593 0 0 1-19.183-5.795 5 5 0 0 1 2.952-9.555c6.31 1.95 12.724 3.888 19.064 5.76a5 5 0 0 1-1.415 9.796m-47.673-14.89a5 5 0 0 1-1.566-.253 1640 1640 0 0 1-18.996-6.39 5 5 0 0 1 3.247-9.46 1586 1586 0 0 0 18.879 6.352 5 5 0 0 1-1.564 9.75m-47.196-16.368a5 5 0 0 1-1.71-.303 1631 1631 0 0 1-18.793-6.98 5 5 0 1 1 3.54-9.352c6.182 2.34 12.465 4.673 18.675 6.936a5 5 0 0 1-1.712 9.699m-46.671-17.832a5 5 0 0 1-1.855-.358 1625 1625 0 0 1-18.569-7.562 5 5 0 1 1 3.828-9.238c6.108 2.531 12.316 5.06 18.455 7.514a5 5 0 0 1-1.86 9.644m-46.1-19.278a5 5 0 0 1-1.998-.42 1601 1601 0 0 1-18.327-8.14 5 5 0 1 1 4.117-9.113 1602 1602 0 0 0 18.212 8.09 5 5 0 0 1-2.003 9.583m-45.481-20.715a5 5 0 0 1-2.14-.484 1582 1582 0 0 1-18.066-8.714 5 5 0 1 1 4.402-8.979c5.937 2.91 11.977 5.823 17.951 8.658a5 5 0 0 1-2.147 9.519m-44.811-22.14a5 5 0 0 1-2.281-.555 1569 1569 0 0 1-17.784-9.282 5 5 0 1 1 4.684-8.836 1557 1557 0 0 0 17.67 9.224 5 5 0 0 1-2.289 9.448m-44.092-23.556a5 5 0 0 1-2.422-.628 1574 1574 0 0 1-17.48-9.848 5 5 0 1 1 4.964-8.682c5.76 3.294 11.604 6.586 17.369 9.785a5 5 0 0 1-2.431 9.373m3378.876-19.218-.18-.003c-6.675-.237-13.406-.512-20.004-.818a5 5 0 0 1 .464-9.99c6.562.306 13.255.58 19.893.814a5 5 0 0 1-.173 9.997m-49.828-2.457q-.159 0-.321-.01a1728 1728 0 0 1-19.95-1.38 5 5 0 0 1 .75-9.974c6.57.495 13.243.956 19.833 1.373a5 5 0 0 1-.312 9.99m-3372.366-3.284a5 5 0 0 1-2.56-.709 1521 1521 0 0 1-17.157-10.41 5 5 0 1 1 5.245-8.514c5.584 3.44 11.318 6.919 17.043 10.34a5 5 0 0 1-2.57 9.294m3322.661-.597q-.232 0-.469-.023c-6.617-.615-13.312-1.28-19.897-1.974a5 5 0 1 1 1.049-9.946c6.545.69 13.198 1.352 19.774 1.963a5 5 0 0 1-.457 9.98m-49.558-5.386a5 5 0 0 1-.625-.039 1561 1561 0 0 1-19.824-2.6 5 5 0 1 1 1.365-9.907c6.47.89 13.097 1.761 19.697 2.584a5 5 0 0 1-.613 9.962m-49.352-6.966a5 5 0 0 1-.787-.062 1472 1472 0 0 1-19.728-3.259 5 5 0 0 1 1.697-9.856 1474 1474 0 0 0 19.593 3.238 5 5 0 0 1-.775 9.94m-49.082-8.633a5 5 0 0 1-.96-.092 1408 1408 0 0 1-19.602-3.952 5 5 0 0 1 2.047-9.788 1373 1373 0 0 0 19.461 3.923 5 5 0 0 1-.946 9.91m-3217.158-4.769a5 5 0 0 1-2.7-.796 1530 1530 0 0 1-16.807-10.965 5 5 0 1 1 5.52-8.339 1533 1533 0 0 0 16.696 10.894 5 5 0 0 1-2.709 9.206m3168.417-5.617a5 5 0 0 1-1.138-.131 1313 1313 0 0 1-19.444-4.683 5 5 0 1 1 2.416-9.703c6.375 1.587 12.867 3.15 19.295 4.646a5 5 0 0 1-1.13 9.87m-48.308-12.23a5 5 0 0 1-1.326-.18 1260 1260 0 0 1-19.25-5.45 5 5 0 1 1 2.803-9.6 1228 1228 0 0 0 19.093 5.406 5 5 0 0 1-1.32 9.823m-3161.71-9.89a4.98 4.98 0 0 1-2.838-.887c-5.47-3.778-11-7.654-16.436-11.519a5 5 0 1 1 5.794-8.15 1499 1499 0 0 0 16.326 11.442 5 5 0 0 1-2.847 9.114m3113.93-4.28a5 5 0 0 1-1.523-.238 1146 1146 0 0 1-19.01-6.256 5 5 0 0 1 3.206-9.472c6.227 2.11 12.567 4.196 18.847 6.203a5 5 0 0 1-1.52 9.763m-47.134-16.2a5 5 0 0 1-1.73-.31 1107 1107 0 0 1-18.722-7.096 5 5 0 1 1 3.629-9.318 1091 1091 0 0 0 18.553 7.032 5 5 0 0 1-1.73 9.692m-3107.452-8.63a4.98 4.98 0 0 1-2.975-.984 1461 1461 0 0 1-16.039-12.069 5 5 0 1 1 6.067-7.949c5.242 4.001 10.601 8.033 15.93 11.987a5 5 0 0 1-2.983 9.015m3061.089-9.686a5 5 0 0 1-1.945-.396 1049 1049 0 0 1-18.378-7.974 5 5 0 0 1 4.07-9.135c6 2.673 12.124 5.33 18.2 7.898a5 5 0 0 1-1.947 9.607m-45.446-20.518a5 5 0 0 1-2.166-.496 1000 1000 0 0 1-17.971-8.88 5 5 0 0 1 4.521-8.92 983 983 0 0 0 17.79 8.79 5 5 0 0 1-2.174 9.506m-3055.287-.267a4.98 4.98 0 0 1-3.111-1.09 1439 1439 0 0 1-15.617-12.61 5 5 0 0 1 6.338-7.737 1449 1449 0 0 0 15.507 12.525 5 5 0 0 1-3.117 8.912m3010.918-22.518a5 5 0 0 1-2.395-.614 955 955 0 0 1-17.498-9.813 5 5 0 1 1 4.984-8.67 934 934 0 0 0 17.312 9.71 5 5 0 0 1-2.403 9.387m-3049.487-9.303a4.98 4.98 0 0 1-3.247-1.199 1441 1441 0 0 1-15.165-13.15 5 5 0 1 1 6.603-7.51c4.978 4.378 10.045 8.771 15.06 13.058a5 5 0 0 1-3.25 8.801m3006.364-15.804a5 5 0 0 1-2.628-.75c-5.699-3.53-11.402-7.15-16.952-10.761a5 5 0 0 1 5.453-8.383 895 895 0 0 0 16.765 10.642 5 5 0 0 1-2.638 9.252m-3043.788-17.349a4.98 4.98 0 0 1-3.38-1.317 1388 1388 0 0 1-14.688-13.681 5 5 0 1 1 6.868-7.268c4.805 4.54 9.711 9.11 14.583 13.582a5 5 0 0 1-3.383 8.684m3002.093-10.113a4.98 4.98 0 0 1-2.863-.904 880 880 0 0 1-16.333-11.712 5 5 0 1 1 5.922-8.06 863 863 0 0 0 16.145 11.579 5 5 0 0 1-2.871 9.097m-3038.302-24.355a4.98 4.98 0 0 1-3.512-1.441c-4.73-4.668-9.5-9.447-14.18-14.204a5 5 0 1 1 7.129-7.013c4.645 4.722 9.381 9.466 14.076 14.1a5 5 0 0 1-3.513 8.558m2998.218-5.46a4.98 4.98 0 0 1-3.097-1.077 858 858 0 0 1-15.635-12.658 5 5 0 0 1 6.383-7.697 856 856 0 0 0 15.453 12.51 5 5 0 0 1-3.104 8.922m-3033.14-30.303a4.98 4.98 0 0 1-3.64-1.574 1368 1368 0 0 1-13.644-14.716 5 5 0 0 1 7.383-6.745 1348 1348 0 0 0 13.543 14.608 5 5 0 0 1-3.641 8.427m2994.854-1.842a4.98 4.98 0 0 1-3.327-1.269 840 840 0 0 1-14.868-13.584 5 5 0 0 1 6.834-7.3 830 830 0 0 0 14.69 13.421 5 5 0 0 1-3.33 8.732m-3031.43-31.047q-2.636 0-5.274-.04a5 5 0 0 1 .074-10q.04 0 .077.002l.75.01c-3.18-3.675-6.346-7.377-9.452-11.05a5 5 0 1 1 7.635-6.457c4.252 5.028 8.618 10.11 12.976 15.104a5 5 0 0 1 1.141 2.337c2.224-.052 4.44-.126 6.633-.22a5 5 0 1 1 .432 9.99c-4.939.213-9.983.323-14.993.324m-35.108-1.755q-.249 0-.501-.024a374 374 0 0 1-20.09-2.554 5 5 0 0 1 1.531-9.883 363 363 0 0 0 19.549 2.485 5 5 0 0 1-.49 9.976m79.723-1.212a5 5 0 0 1-.666-9.956 308 308 0 0 0 19.38-3.259 5 5 0 1 1 1.976 9.803 318 318 0 0 1-20.012 3.366 5 5 0 0 1-.678.046m2950.495-.4a4.99 4.99 0 0 1-3.547-1.476 823 823 0 0 1-14.034-14.476 5 5 0 0 1 7.265-6.873 817 817 0 0 0 13.863 14.3 5 5 0 0 1-3.547 8.525m-3079.446-6.677a5 5 0 0 1-1.163-.137 384 384 0 0 1-19.565-5.212 5 5 0 0 1 2.83-9.591 374 374 0 0 0 19.052 5.075 5 5 0 0 1-1.154 9.865m177.684-3.625a5 5 0 0 1-1.48-9.776 275 275 0 0 0 18.515-6.475 5 5 0 1 1 3.64 9.314 285 285 0 0 1-19.192 6.711 5 5 0 0 1-1.483.226m-225.383-11.135a5 5 0 0 1-1.79-.333 377 377 0 0 1-18.707-7.766 5 5 0 1 1 4.083-9.13 366 366 0 0 0 18.208 7.56 5 5 0 0 1-1.794 9.67m271.487-7.909a5 5 0 0 1-2.34-9.422 249 249 0 0 0 16.942-9.82 5 5 0 0 1 5.354 8.446 259 259 0 0 1-17.625 10.216 5 5 0 0 1-2.331.58m2821.52-7.184a5 5 0 0 1-3.76-1.7 791 791 0 0 1-13.05-15.255 5 5 0 1 1 7.68-6.404 778 778 0 0 0 12.886 15.06 5 5 0 0 1-3.755 8.3m-2990.07-2.517a4.99 4.99 0 0 1-3.894-1.86 1285 1285 0 0 1-12.476-15.709 5 5 0 0 1 7.88-6.158c4.06 5.198 8.226 10.44 12.378 15.587a5 5 0 0 1-3.888 8.14m-148.23-3.403a5 5 0 0 1-2.406-.62 357 357 0 0 1-17.474-10.277 5 5 0 0 1 5.315-8.47 347 347 0 0 0 16.982 9.987 5 5 0 0 1-2.416 9.38m358.337-14.463a5 5 0 0 1-3.176-8.865 237 237 0 0 0 14.597-13.037 5 5 0 0 1 6.965 7.176 247 247 0 0 1-15.215 13.59 4.98 4.98 0 0 1-3.17 1.136m-400.225-12.64a5 5 0 0 1-2.978-.985 532 532 0 0 1-15.935-12.326 5 5 0 1 1 6.267-7.793 521 521 0 0 0 15.632 12.092 5 5 0 0 1-2.986 9.013m3148.478-5.514a4.99 4.99 0 0 1-3.964-1.948 797 797 0 0 1-12.071-16.08 5 5 0 1 1 8.072-5.901 795 795 0 0 0 11.919 15.878 5 5 0 0 1-3.956 8.051m-2988.96-3.457a5 5 0 0 1-4.016-2.014 1275 1275 0 0 1-11.845-16.183 5 5 0 1 1 8.116-5.843c3.852 5.35 7.806 10.752 11.752 16.055a5 5 0 0 1-4.008 7.985m275.801-13.823a5 5 0 0 1-3.881-8.148 255 255 0 0 0 11.727-15.671 5 5 0 0 1 8.23 5.68 265 265 0 0 1-12.188 16.287 4.99 4.99 0 0 1-3.888 1.852m-473.93-8.825a4.98 4.98 0 0 1-3.339-1.278 591 591 0 0 1-14.747-13.702 5 5 0 0 1 6.93-7.209 580 580 0 0 0 14.496 13.467 5 5 0 0 1-3.34 8.722m3157.893-14.36a5 5 0 0 1-4.149-2.205 809 809 0 0 1-11.008-16.77 5 5 0 1 1 8.428-5.382 796 796 0 0 0 10.871 16.56 5.001 5.001 0 0 1-4.142 7.797m-2988.777-3.638a5 5 0 0 1-4.132-2.178 1254 1254 0 0 1-11.192-16.65 5 5 0 0 1 8.344-5.512c3.629 5.494 7.364 11.05 11.102 16.516a5.002 5.002 0 0 1-4.122 7.824m332.37-14.727a5 5 0 0 1-4.402-7.364 280 280 0 0 0 8.659-17.61 5 5 0 0 1 9.122 4.097 291 291 0 0 1-8.969 18.24 5 5 0 0 1-4.41 2.637m-537.194-2.155a4.99 4.99 0 0 1-3.638-1.57 648 648 0 0 1-13.575-14.849 5 5 0 0 1 7.485-6.632 640 640 0 0 0 13.364 14.62 5 5 0 0 1-3.636 8.43m3167.02-21.668a5 5 0 0 1-4.315-2.469 828 828 0 0 1-9.957-17.425 5 5 0 0 1 8.742-4.855 824 824 0 0 0 9.836 17.216 5 5 0 0 1-4.306 7.533m-2989.325-3.385a5 5 0 0 1-4.313-2.463 487 487 0 0 1-9.883-17.602 5 5 0 0 1 8.819-4.715 478 478 0 0 0 9.68 17.241 5.001 5.001 0 0 1-4.303 7.54m-210.527-12.563a5 5 0 0 1-3.891-1.856 701 701 0 0 1-12.42-15.825 5 5 0 1 1 7.955-6.06 686 686 0 0 0 12.24 15.596 5 5 0 0 1-3.884 8.145m589.74-6.064a5.002 5.002 0 0 1-4.742-6.592 327 327 0 0 0 5.688-18.842 5 5 0 1 1 9.656 2.601 337 337 0 0 1-5.863 19.423 5 5 0 0 1-4.74 3.41m2586.153-21.747a5 5 0 0 1-4.459-2.732 844 844 0 0 1-8.896-17.998 5 5 0 1 1 9.017-4.325 829 829 0 0 0 8.79 17.785 5.002 5.002 0 0 1-4.452 7.27m-2988.474-3.885a5 5 0 0 1-4.546-2.91 529 529 0 0 1-8.078-18.485 5 5 0 1 1 9.238-3.83 517 517 0 0 0 7.925 18.135 5.003 5.003 0 0 1-4.54 7.09m-217.404-8.24a4.99 4.99 0 0 1-4.106-2.142 731 731 0 0 1-11.276-16.662 5 5 0 0 1 8.357-5.49 722 722 0 0 0 11.123 16.434 5 5 0 0 1-4.098 7.86m632.068-14.5a5.002 5.002 0 0 1-4.924-5.896 391 391 0 0 0 3.031-19.502 5 5 0 1 1 9.917 1.288 402 402 0 0 1-3.11 20.003 5 5 0 0 1-4.914 4.106m2552.487-18.5a5 5 0 0 1-4.584-2.999 889 889 0 0 1-7.835-18.487 5 5 0 1 1 9.252-3.797 879 879 0 0 0 7.745 18.278 5.002 5.002 0 0 1-4.578 7.004m-2985.85-5.06a5 5 0 0 1-4.72-3.349 558 558 0 0 1-6.322-19.147 5 5 0 0 1 9.55-2.963 548 548 0 0 0 6.21 18.802 5.005 5.005 0 0 1-4.719 6.657m-225.853-3.871a5 5 0 0 1-4.291-2.427 757 757 0 0 1-10.128-17.39 5 5 0 0 1 8.708-4.918 744 744 0 0 0 9.993 17.16 5.002 5.002 0 0 1-4.282 7.575m665.088-22.169q-.149 0-.3-.008a5 5 0 0 1-4.695-5.288c.385-6.48.636-13.13.745-19.761a5 5 0 1 1 9.998.165 472 472 0 0 1-.761 20.19 5 5 0 0 1-4.987 4.702m2527.917-15.189a5 5 0 0 1-4.688-3.259 915 915 0 0 1-6.79-18.898 5 5 0 1 1 9.448-3.279 915 915 0 0 0 6.715 18.693 5.003 5.003 0 0 1-4.685 6.743m-3217.285-6.31a5 5 0 0 1-4.452-2.717 762 762 0 0 1-8.957-18.034 5 5 0 0 1 9.015-4.328 749 749 0 0 0 8.838 17.795 5.002 5.002 0 0 1-4.444 7.284m235.755-.293a5 5 0 0 1-4.845-3.778 570 570 0 0 1-4.584-19.635 5 5 0 1 1 9.777-2.1 560 560 0 0 0 4.504 19.289 5.005 5.005 0 0 1-4.852 6.224m453.952-28.16a5 5 0 0 1-4.991-4.786 542 542 0 0 0-1.214-19.762 5 5 0 1 1 9.968-.795c.537 6.726.952 13.499 1.236 20.13a5 5 0 0 1-4.782 5.21 6 6 0 0 1-.217.003m2511.457-12.5a5 5 0 0 1-4.774-3.514 967 967 0 0 1-5.766-19.236 5 5 0 1 1 9.607-2.771 961 961 0 0 0 5.707 19.034 5 5 0 0 1-4.774 6.487m-3222.496-4.24a5 5 0 0 1-4.594-3.02 749 749 0 0 1-7.733-18.605 5 5 0 0 1 9.286-3.713 732 732 0 0 0 7.63 18.355 5.002 5.002 0 0 1-4.59 6.982m247.027-4.027a5 5 0 0 1-4.932-4.213 567 567 0 0 1-2.822-19.965 5 5 0 1 1 9.924-1.223 557 557 0 0 0 2.773 19.612 5.006 5.006 0 0 1-4.943 5.789m459.623-28.984a5 5 0 0 1-4.951-4.346 610 610 0 0 0-2.917-19.604 5 5 0 0 1 9.866-1.633 621 621 0 0 1 2.965 19.928 5 5 0 0 1-4.302 5.611 5 5 0 0 1-.661.044m2502.244-10.802a5 5 0 0 1-4.84-3.763 1003 1003 0 0 1-4.775-19.504 5 5 0 0 1 9.736-2.281 994 994 0 0 0 4.727 19.308 5.006 5.006 0 0 1-4.848 6.24m-3227.128-2.728a5 5 0 0 1-4.716-3.34 707 707 0 0 1-6.416-19.079 5 5 0 1 1 9.523-3.05 696 696 0 0 0 6.326 18.807 5.003 5.003 0 0 1-4.717 6.662m259.608-7.123a5 5 0 0 1-4.982-4.66 544 544 0 0 1-.997-20.148 5 5 0 0 1 9.996-.306c.2 6.542.53 13.195.977 19.774a5 5 0 0 1-4.649 5.328q-.173.012-.345.012m456.746-28.56a5 5 0 0 1-4.884-3.956 657 657 0 0 0-4.445-19.325 5 5 0 1 1 9.711-2.387 667 667 0 0 1 4.512 19.62 5.003 5.003 0 0 1-4.894 6.047m2499.614-10.277a5 5 0 0 1-4.893-4.003 1059 1059 0 0 1-3.817-19.71 5 5 0 0 1 9.836-1.806c1.196 6.51 2.468 13.078 3.78 19.52a5.005 5.005 0 0 1-4.906 6m-3230.86-1.728a5 5 0 0 1-4.822-3.689q-.985-3.618-1.924-7.233a743 743 0 0 1-3.076-12.26 5 5 0 0 1 9.72-2.35 738 738 0 0 0 3.034 12.095q.925 3.561 1.895 7.122a5.002 5.002 0 0 1-4.827 6.315m273.457-9.368q-.067 0-.136-.002a5 5 0 0 1-4.864-5.131c.18-6.725.496-13.507.941-20.16a5 5 0 1 1 9.978.665 499 499 0 0 0-.923 19.762 5 5 0 0 1-4.996 4.867m445.44-27.026a5 5 0 0 1-4.786-3.558 529 529 0 0 0-6.07-18.851 5 5 0 0 1 9.46-3.244 540 540 0 0 1 6.185 19.209 5.004 5.004 0 0 1-4.79 6.444m2503.163-11.044a5 5 0 0 1-4.935-4.235 1102 1102 0 0 1-2.892-19.86 5 5 0 0 1 9.908-1.352c.897 6.577 1.86 13.198 2.867 19.68a5.01 5.01 0 0 1-4.948 5.767m-3233.482-1.19a5 5 0 0 1-4.897-4.022 761 761 0 0 1-3.673-19.78 5 5 0 0 1 9.855-1.695 749 749 0 0 0 3.625 19.518 5.005 5.005 0 0 1-4.91 5.98m288.84-10.498a5 5 0 0 1-.754-.057 5 5 0 0 1-4.196-5.692 250 250 0 0 1 3.877-20.013 5 5 0 1 1 9.732 2.299 240 240 0 0 0-3.721 19.21 5 5 0 0 1-4.938 4.253m424.813-24.367a5 5 0 0 1-4.63-3.106 478 478 0 0 0-7.873-18.15 5 5 0 0 1 9.089-4.171 490 490 0 0 1 8.039 18.531 5.003 5.003 0 0 1-4.625 6.896m2513.3-13.464a5 5 0 0 1-4.965-4.458 1169 1169 0 0 1-2.004-19.963 5 5 0 0 1 9.96-.912c.6 6.57 1.27 13.23 1.985 19.79a5 5 0 0 1-4.428 5.513 5 5 0 0 1-.548.03m-3235.106-.954a5 5 0 0 1-4.95-4.346c-.87-6.591-1.67-13.31-2.377-19.97a5 5 0 1 1 9.944-1.056 784 784 0 0 0 2.347 19.717 5 5 0 0 1-4.302 5.612 5 5 0 0 1-.662.044m309.367-9.526a5.002 5.002 0 0 1-4.699-6.706 274 274 0 0 1 7.656-18.861 5 5 0 0 1 9.12 4.102 264 264 0 0 0-7.376 18.17 5 5 0 0 1-4.7 3.295m391.084-21.215a5 5 0 0 1-4.397-2.613 401 401 0 0 0-9.841-17.102 5 5 0 1 1 8.539-5.204 410 410 0 0 1 10.088 17.53 5.002 5.002 0 0 1-4.389 7.39m2530.31-18.06a5 5 0 0 1-4.983-4.671c-.438-6.639-.824-13.375-1.15-20.023a5 5 0 1 1 9.988-.49c.323 6.592.707 13.272 1.14 19.857a5 5 0 0 1-4.66 5.317q-.167.01-.335.01m-3235.72-.904a5 5 0 0 1-4.983-4.66c-.452-6.635-.829-13.39-1.12-20.074a5 5 0 1 1 9.99-.435c.288 6.604.66 13.275 1.107 19.83a5 5 0 0 1-4.649 5.328q-.173.011-.345.011m335.62-4.95a5.002 5.002 0 0 1-4.302-7.542 278 278 0 0 1 10.974-17.14 5 5 0 0 1 8.218 5.7 268 268 0 0 0-10.578 16.52 5 5 0 0 1-4.312 2.461m343.215-18.324a5 5 0 0 1-4.043-2.053 315 315 0 0 0-12.08-15.521 5 5 0 1 1 7.69-6.39 324 324 0 0 1 12.467 16.017 5 5 0 0 1-4.034 7.947m-313.99-22.146a5 5 0 0 1-3.757-8.296 259 259 0 0 1 14.024-14.786 5 5 0 0 1 6.976 7.164 250 250 0 0 0-13.48 14.213 4.99 4.99 0 0 1-3.762 1.704m2868.633-3.561a5 5 0 0 1-4.995-4.877 1257 1257 0 0 1-.33-20.046 5 5 0 0 1 4.959-5.042h.043a5 5 0 0 1 4.999 4.958c.055 6.635.165 13.325.326 19.884a5 5 0 0 1-4.877 5.121zm-3235.348-.936a5 5 0 0 1-4.998-4.962q-.024-3.176-.024-6.351c0-4.55.037-9.176.11-13.75a5 5 0 0 1 9.998.161c-.071 4.52-.108 9.092-.108 13.589q0 3.138.023 6.276a5 5 0 0 1-4.963 5.037Zm648.1-11.136a4.98 4.98 0 0 1-3.48-1.411c-4.744-4.601-9.65-8.99-14.582-13.046a5 5 0 0 1 6.352-7.723 250 250 0 0 1 15.192 13.59 5 5 0 0 1-3.482 8.59m-244.883-18.403a5 5 0 0 1-3.011-8.994 225 225 0 0 1 16.859-11.543 5 5 0 1 1 5.263 8.502 215 215 0 0 0-16.107 11.03 4.98 4.98 0 0 1-3.004 1.005m205.635-12.324a5 5 0 0 1-2.607-.737 191 191 0 0 0-17.078-9.31 5 5 0 1 1 4.326-9.015 201 201 0 0 1 17.976 9.798 5.001 5.001 0 0 1-2.617 9.264m2626.28-7.129h-.08a5 5 0 0 1-4.922-5.077c.102-6.64.258-13.388.464-20.054a5 5 0 1 1 9.995.309c-.204 6.614-.36 13.31-.46 19.9a5 5 0 0 1-4.998 4.922m-3234.044-.945q-.127 0-.255-.007a5 5 0 0 1-4.742-5.245 901 901 0 0 1 1.236-20.056 5 5 0 1 1 9.973.727c-.48 6.598-.891 13.27-1.222 19.832a5 5 0 0 1-4.99 4.749m445.167-4.75a5 5 0 0 1-1.974-9.595 191 191 0 0 1 19.25-7.067 5 5 0 0 1 2.928 9.561 181 181 0 0 0-18.235 6.696 5 5 0 0 1-1.969.406m117.137-7.436a5 5 0 0 1-1.398-.2 173 173 0 0 0-18.893-4.363 5 5 0 1 1 1.7-9.854 184 184 0 0 1 19.987 4.616 5 5 0 0 1-1.396 9.801m-69.177-5.733a5 5 0 0 1-.615-9.962 172 172 0 0 1 20.512-1.33h.024a5 5 0 0 1 .023 10 162 162 0 0 0-19.317 1.252 5 5 0 0 1-.627.04m2742.652-31.06a4 4 0 0 1-.275-.007 5 5 0 0 1-4.723-5.262c.359-6.656.774-13.392 1.232-20.02a5 5 0 0 1 9.977.69c-.455 6.578-.867 13.263-1.224 19.869a5 5 0 0 1-4.987 4.73m-3231.881-.818a5 5 0 0 1-.532-.028 5 5 0 0 1-4.446-5.5 955 955 0 0 1 2.325-19.952 5 5 0 1 1 9.92 1.262 947 947 0 0 0-2.3 19.743 5 5 0 0 1-4.967 4.475m3235.51-49q-.23 0-.462-.022a5 5 0 0 1-4.522-5.436c.609-6.641 1.275-13.356 1.979-19.957a5 5 0 0 1 9.943 1.06c-.698 6.553-1.36 13.217-1.965 19.81a5 5 0 0 1-4.972 4.544m-3228.95-.518a5 5 0 0 1-.79-.063 5 5 0 0 1-4.155-5.723c1.042-6.55 2.17-13.212 3.354-19.801a5 5 0 0 1 9.842 1.768 993 993 0 0 0-3.32 19.603 5 5 0 0 1-4.93 4.216m9.073-49.12a5.006 5.006 0 0 1-4.897-6.03 1052 1052 0 0 1 4.322-19.609 5 5 0 0 1 9.744 2.246 1048 1048 0 0 0-4.28 19.421 5 5 0 0 1-4.889 3.972m3225.355-.013a5.004 5.004 0 0 1-4.965-5.639c.655-5.088 1.357-10.292 2.083-15.467l.625-4.4a5 5 0 1 1 9.899 1.416l-.621 4.38a1337 1337 0 0 0-2.068 15.348 5 5 0 0 1-4.953 4.362m-947.77-38.645a5 5 0 0 1-.007-10q9.974-.014 19.95-.095h.04a5 5 0 0 1 .04 10c-6.665.054-13.4.086-20.017.095Zm-29.976-.108h-.044c-6.666-.059-13.4-.14-20.016-.241a5 5 0 1 1 .155-10q9.974.154 19.949.24a5 5 0 0 1-.044 10m79.932-.38a5 5 0 0 1-.09-10q9.974-.18 19.946-.428l.127-.002a5 5 0 0 1 .121 9.999q-10.005.247-20.013.43zm-129.88-.473q-.063 0-.13-.002a2976 2976 0 0 1-20.009-.576 5 5 0 0 1 .322-9.995c6.616.212 13.325.406 19.942.574a5 5 0 0 1-.124 9.999m179.818-.854a5 5 0 0 1-.172-9.997q9.97-.349 19.936-.763a5 5 0 1 1 .416 9.991q-10 .416-20.002.766-.089.003-.178.003m-229.747-.837a5 5 0 0 1-.215-.004c-6.637-.28-13.364-.587-19.996-.913a5 5 0 1 1 .49-9.987c6.609.323 13.314.63 19.928.909a5 5 0 0 1-.207 9.995m279.66-1.328a5 5 0 0 1-.255-9.993q9.963-.516 19.921-1.1a5 5 0 0 1 .583 9.984q-9.99.583-19.986 1.102a5 5 0 0 1-.264.007m-329.552-1.2q-.149 0-.3-.008c-6.604-.39-13.326-.81-19.978-1.249a5 5 0 1 1 .657-9.977c6.63.436 13.329.854 19.91 1.243a5 5 0 0 1-.29 9.992m379.418-1.804a5 5 0 0 1-.337-9.988q9.953-.683 19.9-1.434a5 5 0 1 1 .752 9.972q-9.98.752-19.966 1.439-.176.011-.349.011m-429.262-1.562q-.191 0-.384-.014a3024 3024 0 0 1-19.955-1.584 5 5 0 0 1 .825-9.966c6.574.544 13.266 1.076 19.888 1.578a5 5 0 0 1-.374 9.986m-2036.553-1.42a5.003 5.003 0 0 1-4.842-6.261 1108 1108 0 0 1 5.234-19.38 5 5 0 0 1 9.63 2.695 1097 1097 0 0 0-5.186 19.204 5 5 0 0 1-4.836 3.741m3221.125-.816a5 5 0 0 1-.805-.065 5 5 0 0 1-4.137-5.735 1657 1657 0 0 1 3.322-19.763 5 5 0 1 1 9.851 1.717c-1.128 6.471-2.239 13.08-3.301 19.644a5 5 0 0 1-4.93 4.202m-705.496-.044a5 5 0 0 1-.422-9.982 3040 3040 0 0 0 19.873-1.769 5 5 0 1 1 .92 9.957c-6.647.614-13.355 1.212-19.94 1.775q-.217.02-.431.019m-528.856-1.924q-.233 0-.468-.022c-6.638-.617-13.34-1.262-19.925-1.92a5 5 0 0 1 .993-9.95c6.561.654 13.243 1.298 19.857 1.913a5 5 0 0 1-.457 9.979m578.595-2.758a5 5 0 0 1-.505-9.974c6.556-.673 13.232-1.381 19.84-2.104a5 5 0 0 1 1.088 9.941c-6.63.725-13.33 1.436-19.906 2.111a5 5 0 0 1-.517.026m-628.296-2.284a5 5 0 0 1-.553-.03 2883 2883 0 0 1-19.89-2.256 5 5 0 0 1 1.16-9.932c6.574.768 13.243 1.524 19.823 2.248a5 5 0 0 1-.54 9.97m677.95-3.237a5 5 0 0 1-.589-9.964c6.596-.79 13.257-1.61 19.801-2.44a5 5 0 0 1 1.257 9.92c-6.566.832-13.25 1.656-19.868 2.448a5 5 0 0 1-.6.036m-727.56-2.642a5 5 0 0 1-.637-.04c-6.588-.838-13.267-1.71-19.849-2.592a5 5 0 0 1 1.329-9.912c6.56.88 13.215 1.749 19.78 2.583a5 5 0 0 1-.624 9.96m777.113-3.718a5 5 0 0 1-.673-9.955c6.534-.895 13.18-1.829 19.757-2.775a5 5 0 1 1 1.424 9.898c-6.598.95-13.267 1.886-19.823 2.785a5 5 0 0 1-.685.046m-826.617-3.001a5 5 0 0 1-.72-.052c-6.55-.945-13.212-1.93-19.802-2.927a5 5 0 1 1 1.496-9.887c6.567.993 13.207 1.974 19.734 2.917a5 5 0 0 1-.708 9.949m876.055-4.2a5 5 0 0 1-.756-9.943 2937 2937 0 0 0 19.707-3.11 5 5 0 1 1 1.592 9.872 2954 2954 0 0 1-19.774 3.121 5 5 0 0 1-.77.06m-925.436-3.356a5 5 0 0 1-.805-.065 2966 2966 0 0 1-19.75-3.262 5 5 0 1 1 1.664-9.861c6.553 1.105 13.175 2.2 19.683 3.251a5 5 0 0 1-.792 9.937m974.745-4.686a5 5 0 0 1-.84-9.928 2912 2912 0 0 0 19.65-3.447 5 5 0 0 1 1.761 9.844 2921 2921 0 0 1-19.718 3.458 5 5 0 0 1-.853.073m-1023.993-3.708a5 5 0 0 1-.888-.08 2994 2994 0 0 1-19.69-3.598 5 5 0 1 1 1.831-9.831c6.464 1.205 13.067 2.41 19.624 3.587a5 5 0 0 1-.877 9.922m1073.157-5.173a5 5 0 0 1-.925-9.914c6.535-1.238 13.125-2.51 19.588-3.782a5 5 0 1 1 1.93 9.812 2885 2885 0 0 1-19.656 3.795 5 5 0 0 1-.937.088m-1122.253-4.06a5 5 0 0 1-.971-.095 2967 2967 0 0 1-19.627-3.934 5 5 0 1 1 2-9.798 2939 2939 0 0 0 19.559 3.92 5 5 0 0 1-.96 9.907m-1676.553-2.433a5.004 5.004 0 0 1-4.774-6.491 609 609 0 0 1 6.321-19.123 5 5 0 0 1 9.442 3.296 598 598 0 0 0-6.217 18.807 5 5 0 0 1-4.772 3.511m3216.176-1.953a5.006 5.006 0 0 1-4.915-5.951 1616 1616 0 0 1 3.93-19.653 5 5 0 1 1 9.793 2.022 1617 1617 0 0 0-3.904 19.53 5 5 0 0 1-4.904 4.052m-368.365-1.277a5 5 0 0 1-1.01-9.897 2976 2976 0 0 0 19.52-4.117 5 5 0 1 1 2.098 9.777c-6.526 1.4-13.116 2.79-19.586 4.131a5 5 0 0 1-1.022.106m-1220.19-4.407a5 5 0 0 1-1.055-.113c-6.52-1.4-13.1-2.838-19.556-4.27a5 5 0 0 1 2.167-9.763c6.434 1.428 12.991 2.86 19.49 4.256a5 5 0 0 1-1.046 9.89m1269.02-6.157a5 5 0 0 1-1.094-9.878c6.478-1.461 13.021-2.959 19.446-4.454a5 5 0 0 1 2.265 9.74c-6.446 1.5-13.011 3.004-19.512 4.468a5 5 0 0 1-1.105.124m-1317.77-4.753a5 5 0 0 1-1.139-.131 2926 2926 0 0 1-19.48-4.607 5 5 0 0 1 2.334-9.723 2907 2907 0 0 0 19.414 4.59 5 5 0 0 1-1.13 9.87m1366.412-6.651a5 5 0 0 1-1.18-9.86c6.441-1.569 12.957-3.18 19.366-4.788a5 5 0 1 1 2.434 9.699c-6.43 1.614-12.969 3.23-19.433 4.806a5 5 0 0 1-1.187.143m-1414.969-5.097a5 5 0 0 1-1.222-.151 2896 2896 0 0 1-19.398-4.942 5 5 0 0 1 2.502-9.682c6.38 1.649 12.885 3.306 19.331 4.925a5 5 0 0 1-1.213 9.85m1463.403-7.149a5 5 0 0 1-1.263-9.838 2946 2946 0 0 0 19.28-5.124 5 5 0 0 1 2.602 9.655 2914 2914 0 0 1-19.347 5.142 5 5 0 0 1-1.272.165m-1511.75-5.437a5 5 0 0 1-1.305-.173 2899 2899 0 0 1-19.31-5.279 5 5 0 1 1 2.671-9.636 2873 2873 0 0 0 19.242 5.26 5 5 0 0 1-1.299 9.828m-1465.125-4.13a5.003 5.003 0 0 1-4.632-6.88 615 615 0 0 1 7.879-18.54 5 5 0 1 1 9.138 4.062 604 604 0 0 0-7.75 18.236 5 5 0 0 1-4.635 3.122m3025.091-3.52a5.001 5.001 0 0 1-1.35-9.815 2845 2845 0 0 0 19.187-5.46 5 5 0 1 1 2.772 9.608 2889 2889 0 0 1-19.255 5.48 5 5 0 0 1-1.354.188m184.487-.305a5.004 5.004 0 0 1-4.881-6.104 1677 1677 0 0 1 4.539-19.52 5 5 0 0 1 9.726 2.325 1617 1617 0 0 0-4.511 19.4 5 5 0 0 1-4.872 3.899m-1792.574-5.468a5 5 0 0 1-1.388-.197 2877 2877 0 0 1-19.216-5.614 5 5 0 0 1 2.839-9.59c6.34 1.878 12.782 3.76 19.148 5.595a5 5 0 0 1-1.383 9.806m1656.065-8.154a5.001 5.001 0 0 1-1.435-9.79 2858 2858 0 0 0 19.087-5.796 5 5 0 1 1 2.94 9.558 2902 2902 0 0 1-19.155 5.816 5 5 0 0 1-1.437.212m-1703.945-6.108a5 5 0 0 1-1.471-.222 2897 2897 0 0 1-19.114-5.95 5 5 0 0 1 3.005-9.538c6.27 1.977 12.679 3.971 19.048 5.93a5 5 0 0 1-1.468 9.78m1751.67-8.66a5 5 0 0 1-1.52-9.765 2736 2736 0 0 0 18.98-6.131 5 5 0 0 1 3.11 9.505 2818 2818 0 0 1-19.05 6.153 5 5 0 0 1-1.52.238m-1799.294-6.44a5 5 0 0 1-1.553-.248c-6.32-2.066-12.716-4.18-19.008-6.285a5 5 0 0 1 3.173-9.484c6.27 2.098 12.642 4.205 18.94 6.263a5.001 5.001 0 0 1-1.552 9.754m-1300.84-6.815a5.002 5.002 0 0 1-4.459-7.255 608 608 0 0 1 9.382-17.833 5 5 0 1 1 8.771 4.803 598 598 0 0 0-9.227 17.538 5 5 0 0 1-4.467 2.747m3147.588-2.353a5 5 0 0 1-1.603-9.736 2858 2858 0 0 0 18.87-6.467 5 5 0 1 1 3.274 9.448 2773 2773 0 0 1-18.937 6.49 5 5 0 0 1-1.604.265m53.096-4.543a5.004 5.004 0 0 1-4.845-6.254q.816-3.147 1.65-6.318l-1.043.374a5 5 0 0 1-3.376-9.413q3.778-1.355 7.564-2.725l.35-1.288a5 5 0 0 1 8.599-1.968q1.122-.41 2.237-.82a5 5 0 1 1 3.444 9.388q-3.145 1.154-6.328 2.313c-1.16 4.33-2.304 8.67-3.416 12.964a5 5 0 0 1-4.836 3.747m-1947.194-2.224a5 5 0 0 1-1.636-.277 2804 2804 0 0 1-18.894-6.62 5 5 0 1 1 3.34-9.426 2830 2830 0 0 0 18.827 6.597 5 5 0 0 1-1.637 9.726m-47.061-16.772a5 5 0 0 1-1.72-.306 2821 2821 0 0 1-18.773-6.955 5 5 0 1 1 3.506-9.365c6.226 2.331 12.52 4.663 18.708 6.93a5 5 0 0 1-1.721 9.696m2035.198-10.192a5.001 5.001 0 0 1-1.773-9.677 2789 2789 0 0 0 18.626-7.135 5 5 0 1 1 3.61 9.325 2811 2811 0 0 1-18.691 7.161 5 5 0 0 1-1.771.326m-2081.954-7.415a5 5 0 0 1-1.803-.338 2788 2788 0 0 1-18.647-7.29 5 5 0 1 1 3.674-9.3 2808 2808 0 0 0 18.58 7.264 5 5 0 0 1-1.804 9.664m-1135.319-.11a5.001 5.001 0 0 1-4.255-7.62 594 594 0 0 1 10.847-16.991 5 5 0 0 1 8.336 5.524 584 584 0 0 0-10.664 16.705 5 5 0 0 1-4.264 2.382m3263.824-10.597a5 5 0 0 1-1.857-9.644 2758 2758 0 0 0 18.493-7.469 5 5 0 0 1 3.78 9.258 2731 2731 0 0 1-18.562 7.496 5 5 0 0 1-1.854.359m-74.24-.786a5.005 5.005 0 0 1-4.803-6.405 1656 1656 0 0 1 5.728-19.154 5 5 0 1 1 9.562 2.923 1668 1668 0 0 0-5.692 19.038 5 5 0 0 1-4.796 3.598m-2100.7-6.947a5 5 0 0 1-1.885-.371 2776 2776 0 0 1-18.515-7.624 5 5 0 0 1 3.841-9.233 2741 2741 0 0 0 18.447 7.596 5 5 0 0 1-1.889 9.632m2221.158-11.225a5.001 5.001 0 0 1-1.941-9.61q7.25-3.051 14.482-6.144l3.87-1.658a5 5 0 1 1 3.944 9.19l-3.881 1.663q-7.26 3.104-14.536 6.166a5 5 0 0 1-1.938.393m-2267.255-8.049a5 5 0 0 1-1.968-.406 2748 2748 0 0 1-18.374-7.957 5 5 0 1 1 4.008-9.162 2704 2704 0 0 0 18.306 7.928 5.001 5.001 0 0 1-1.972 9.597m-1014.837-3.797a5 5 0 0 1-4.016-7.974 574 574 0 0 1 12.278-16 5 5 0 1 1 7.824 6.227 565 565 0 0 0-12.063 15.72 5 5 0 0 1-4.023 2.027m3327.943-7.955a5.001 5.001 0 0 1-2.03-9.573 2316 2316 0 0 0 18.184-8.157 5 5 0 0 1 4.133 9.106 2373 2373 0 0 1-18.263 8.192 5 5 0 0 1-2.024.432m-2358.852-8.342a5 5 0 0 1-2.042-.438q-9.1-4.076-18.241-8.209a5 5 0 0 1 4.118-9.113q9.126 4.124 18.211 8.196a5 5 0 0 1-2.046 9.564m2207.259-1.321a5.004 5.004 0 0 1-4.755-6.55c2.047-6.284 4.17-12.672 6.31-18.985a5 5 0 0 1 9.471 3.21 1678 1678 0 0 0-6.273 18.872 5 5 0 0 1-4.753 3.453m197.026-11.077a5 5 0 0 1-2.13-9.526 2113 2113 0 0 0 17.998-8.564 5 5 0 0 1 4.34 9.01 2131 2131 0 0 1-18.084 8.604 5 5 0 0 1-2.124.476m-2449.815-8.194a5 5 0 0 1-2.069-.451l-18.23-8.307a5 5 0 0 1 4.149-9.1l18.225 8.306a5.001 5.001 0 0 1-2.075 9.552m-892.1-1.915a5 5 0 0 1-3.737-8.32 544 544 0 0 1 13.675-14.836 5 5 0 0 1 7.225 6.913 537 537 0 0 0-13.424 14.563 4.99 4.99 0 0 1-3.74 1.68m3386.867-11.682a5 5 0 0 1-2.24-9.472 1915 1915 0 0 0 17.777-9.013 5 5 0 1 1 4.569 8.895 1899 1899 0 0 1-17.872 9.06 5 5 0 0 1-2.234.53m-2540.303-7.148a5 5 0 0 1-2.066-.45q-9.093-4.133-18.219-8.26a5 5 0 1 1 4.12-9.112q9.134 4.129 18.237 8.27a5 5 0 0 1-2.072 9.552m2314.482-7.184a5.004 5.004 0 0 1-4.706-6.691c2.252-6.27 4.564-12.596 6.874-18.802a5 5 0 0 1 9.372 3.487c-2.296 6.17-4.596 12.46-6.835 18.695a5 5 0 0 1-4.705 3.311m270.2-8.624a5 5 0 0 1-2.363-9.41c5.877-3.144 11.77-6.342 17.517-9.505a5 5 0 0 1 4.822 8.76 1705 1705 0 0 1-17.622 9.562 5 5 0 0 1-2.355.593m-3396.371-1.125a5 5 0 0 1-3.412-8.656 518 518 0 0 1 15.026-13.478 5 5 0 1 1 6.53 7.575 508 508 0 0 0-14.735 13.216 4.98 4.98 0 0 1-3.41 1.343m766.1-3.628a5 5 0 0 1-2.034-.435q-9.118-4.068-18.26-8.1a5 5 0 0 1 4.033-9.151q9.164 4.04 18.302 8.119a5 5 0 0 1-2.04 9.567m2673.974-19.477a5 5 0 0 1-2.496-9.336 1517 1517 0 0 0 17.212-10.042 5 5 0 1 1 5.096 8.603 1526 1526 0 0 1-17.325 10.11 5 5 0 0 1-2.487.665m-2719.74-.614a5 5 0 0 1-1.975-.409c-6.25-2.69-12.423-5.323-18.35-7.826a5 5 0 1 1 3.89-9.212 2923 2923 0 0 1 18.415 7.853 5.001 5.001 0 0 1-1.98 9.594m-682.175-8.505a5 5 0 0 1-3.034-8.978 490 490 0 0 1 16.31-11.902 5 5 0 0 1 5.725 8.199 479 479 0 0 0-15.974 11.657 4.98 4.98 0 0 1-3.027 1.024m3105.555-4.761a5.004 5.004 0 0 1-4.655-6.825 1836 1836 0 0 1 7.412-18.611 5 5 0 0 1 9.27 3.751 1817 1817 0 0 0-7.37 18.507 5 5 0 0 1-4.657 3.178m-2469.444-6.067a5 5 0 0 1-1.885-.37 2088 2088 0 0 0-18.483-7.433 5 5 0 1 1 3.685-9.296 2098 2098 0 0 1 18.572 7.468 5.001 5.001 0 0 1-1.889 9.631m2808.715-5.67a5 5 0 0 1-2.64-9.25 1393 1393 0 0 0 16.855-10.622 5 5 0 1 1 5.393 8.42 1402 1402 0 0 1-16.977 10.7 4.97 4.97 0 0 1-2.63.752m-3403.58-11.65a5 5 0 0 1-2.599-9.274 462 462 0 0 1 17.486-10.1 5 5 0 1 1 4.81 8.768 454 454 0 0 0-17.107 9.88 4.97 4.97 0 0 1-2.59.726m548.397-.946a5 5 0 0 1-1.764-.323 1616 1616 0 0 0-18.657-6.91 5 5 0 1 1 3.414-9.398c6.149 2.233 12.466 4.572 18.773 6.952a5.001 5.001 0 0 1-1.766 9.68m2897.166-14.516a5 5 0 0 1-2.795-9.15c5.53-3.718 11.06-7.502 16.439-11.244a5 5 0 1 1 5.71 8.209 1287 1287 0 0 1-16.567 11.333 5 5 0 0 1-2.787.852m-2944.138-2.347a5 5 0 0 1-1.608-.267 1291 1291 0 0 0-18.863-6.243 5 5 0 1 1 3.066-9.517 1287 1287 0 0 1 19.011 6.29 5 5 0 0 1-1.606 9.737m2581.743-5.055a5.003 5.003 0 0 1-4.602-6.952c2.592-6.114 5.256-12.31 7.919-18.412a5 5 0 1 1 9.166 3.998c-2.65 6.072-5.3 12.235-7.878 18.316a5 5 0 0 1-4.606 3.05m-3039.134-.648a5 5 0 0 1-2.107-9.536 442 442 0 0 1 18.504-8.075 5 5 0 1 1 3.788 9.255 432 432 0 0 0-18.084 7.891 5 5 0 0 1-2.1.465m409.837-9.383a5 5 0 0 1-1.411-.204c-6.396-1.878-12.82-3.7-19.092-5.412a5 5 0 0 1 2.634-9.647c6.334 1.73 12.82 3.568 19.275 5.464a5 5 0 0 1-1.406 9.799m-363.434-8.99a5.001 5.001 0 0 1-1.576-9.746 473 473 0 0 1 19.301-5.956 5 5 0 1 1 2.743 9.616 463 463 0 0 0-18.89 5.83 5 5 0 0 1-1.578.257m3396.032-2.29a5 5 0 0 1-2.96-9.032 1172 1172 0 0 0 15.956-11.905 5 5 0 0 1 6.05 7.963 1181 1181 0 0 1-16.094 12.007 4.98 4.98 0 0 1-2.952.968m-3080.783-1.599a5 5 0 0 1-1.168-.138 869 869 0 0 0-19.328-4.4 5 5 0 1 1 2.106-9.775 877 877 0 0 1 19.55 4.45 5 5 0 0 1-1.16 9.863m-267.086-9.295a5 5 0 0 1-1.056-9.887 481 481 0 0 1 19.82-3.867 5 5 0 1 1 1.708 9.853 472 472 0 0 0-19.406 3.786 5 5 0 0 1-1.066.115m218.267-.894a5 5 0 0 1-.874-.077 734 734 0 0 0-19.544-3.18 5 5 0 1 1 1.47-9.892c6.515.97 13.18 2.054 19.811 3.224a5 5 0 0 1-.863 9.925m-49.383-6.964a5 5 0 0 1-.523-.027 631 631 0 0 0-19.71-1.74 5 5 0 0 1 .72-9.973 642 642 0 0 1 20.025 1.767 5 5 0 0 1-.512 9.973m-119.598-.175a5 5 0 0 1-.545-9.97 514 514 0 0 1 20.098-1.822 5 5 0 1 1 .707 9.974 502 502 0 0 0-19.704 1.787 5 5 0 0 1-.556.031m69.813-2.992-.11-.001a561 561 0 0 0-19.783-.076 5 5 0 1 1-.14-10 568 568 0 0 1 20.139.079 5 5 0 0 1-.106 9.998M3994 1432.813a5.003 5.003 0 0 1-4.549-7.07c2.734-6.012 5.559-12.14 8.394-18.213a5 5 0 1 1 9.06 4.23c-2.821 6.043-5.63 12.14-8.35 18.122a5 5 0 0 1-4.555 2.931m422.854-5.962a5 5 0 0 1-3.133-8.899 1081 1081 0 0 0 15.4-12.598 5 5 0 1 1 6.403 7.68 1074 1074 0 0 1-15.544 12.715 4.98 4.98 0 0 1-3.126 1.102m38.218-32.184a5 5 0 0 1-3.313-8.746 991 991 0 0 0 14.764-13.318 5 5 0 1 1 6.773 7.357 995 995 0 0 1-14.914 13.454 4.98 4.98 0 0 1-3.31 1.254m-439.815-7.111a5.003 5.003 0 0 1-4.495-7.183c2.92-6.026 5.892-12.086 8.83-18.012a5 5 0 1 1 8.96 4.443 2241 2241 0 0 0-8.792 17.931 5 5 0 0 1-4.503 2.82m476.388-26.91a5 5 0 0 1-3.499-8.573c4.729-4.63 9.454-9.36 14.044-14.055a5 5 0 0 1 7.15 6.992 945 945 0 0 1-14.196 14.207 4.99 4.99 0 0 1-3.499 1.428m-454.062-17.86a5.002 5.002 0 0 1-4.445-7.282 2384 2384 0 0 1 9.232-17.82 5 5 0 1 1 8.86 4.638c-3.1 5.92-6.193 11.89-9.194 17.744a5 5 0 0 1-4.453 2.72m488.776-18.037a5 5 0 0 1-3.687-8.375 878 878 0 0 0 13.236-14.797 5 5 0 0 1 7.53 6.581 886 886 0 0 1-13.39 14.967 4.99 4.99 0 0 1-3.689 1.624m-465.477-26.26a5.002 5.002 0 0 1-4.398-7.373 2638 2638 0 0 1 9.596-17.635 5 5 0 1 1 8.766 4.813 2587 2587 0 0 0-9.559 17.567 5 5 0 0 1-4.405 2.628m498.108-11.512a5 5 0 0 1-3.874-8.158 840 840 0 0 0 12.354-15.544 5 5 0 1 1 7.902 6.127 838 838 0 0 1-12.502 15.732 4.99 4.99 0 0 1-3.88 1.843m-473.93-32.334a5.002 5.002 0 0 1-4.35-7.457c3.284-5.825 6.611-11.68 9.889-17.402a5 5 0 1 1 8.677 4.97 2943 2943 0 0 0-9.855 17.343 5 5 0 0 1-4.36 2.546m504.25-7.351a5 5 0 0 1-4.07-7.897 599 599 0 0 0 11.214-16.338 5 5 0 1 1 8.34 5.518 610 610 0 0 1-11.404 16.613 5 5 0 0 1-4.08 2.104m-479.351-35.955a5.001 5.001 0 0 1-4.309-7.528q5.047-8.614 10.172-17.236a5 5 0 1 1 8.596 5.11q-5.11 8.595-10.14 17.18a5 5 0 0 1-4.319 2.474m506.481-5.98a5.001 5.001 0 0 1-4.32-7.51 434 434 0 0 0 9.533-17.307 5 5 0 1 1 8.87 4.62 447 447 0 0 1-9.753 17.706 5 5 0 0 1-4.33 2.49m-480.897-36.925a5 5 0 0 1-4.27-7.592q5.172-8.534 10.42-17.082a5 5 0 1 1 8.522 5.231q-5.233 8.525-10.39 17.034a5 5 0 0 1-4.282 2.41m503.367-7.668a5.004 5.004 0 0 1-4.6-6.957 333 333 0 0 0 7.166-18.335 5 5 0 0 1 9.42 3.357 343 343 0 0 1-7.382 18.889 5 5 0 0 1-4.604 3.046m-477.183-34.872a5 5 0 0 1-4.236-7.65q2.224-3.56 4.458-7.124a378 378 0 0 1 6.404-9.85 5 5 0 1 1 8.3 5.577 365 365 0 0 0-6.231 9.586q-2.231 3.556-4.45 7.109a5 5 0 0 1-4.245 2.352m493.12-12.421a5.005 5.005 0 0 1-4.859-6.2 267 267 0 0 0 4.001-19.189 5 5 0 0 1 9.86 1.674 277 277 0 0 1-4.152 19.912 5 5 0 0 1-4.85 3.803m-464.824-28.756a5 5 0 0 1-3.97-8.035 669 669 0 0 1 12.477-15.818 5 5 0 1 1 7.76 6.308A656 656 0 0 0 4194 1082.75a4.99 4.99 0 0 1-3.978 1.966m472.083-20.58q-.1 0-.204-.003a5 5 0 0 1-4.796-5.196 219 219 0 0 0-.096-19.53 5 5 0 0 1 9.988-.495c.187 3.765.281 7.584.281 11.351 0 3.024-.06 6.076-.18 9.073a5 5 0 0 1-4.993 4.8m-440.327-18.018a5 5 0 0 1-3.756-8.299c4.34-4.944 8.86-9.977 13.433-14.96a5 5 0 1 1 7.367 6.761 907 907 0 0 0-13.284 14.796 4.99 4.99 0 0 1-3.76 1.702m436.718-31.71a5 5 0 0 1-4.908-4.08 209 209 0 0 0-4.485-18.989 5 5 0 1 1 9.614-2.756 218 218 0 0 1 4.699 19.903 5.004 5.004 0 0 1-4.92 5.922m-402.734-4.947a5 5 0 0 1-3.578-8.493c4.678-4.79 9.452-9.58 14.185-14.236a5 5 0 1 1 7.013 7.128c-4.687 4.611-9.412 9.353-14.043 14.095a4.99 4.99 0 0 1-3.577 1.506m35.808-34.854a5 5 0 0 1-3.394-8.671 889 889 0 0 1 14.92-13.482 5 5 0 0 1 6.619 7.496 885 885 0 0 0-14.752 13.33 4.98 4.98 0 0 1-3.393 1.327m351.971-7.744a5 5 0 0 1-4.547-2.915 177 177 0 0 0-9.05-17.188 5 5 0 1 1 8.574-5.146 187 187 0 0 1 9.564 18.162 5.003 5.003 0 0 1-4.541 7.087m-314.275-25.082a5 5 0 0 1-3.163-8.876 619 619 0 0 1 15.826-12.487 5 5 0 0 1 6.06 7.954 607 607 0 0 0-15.567 12.285 4.98 4.98 0 0 1-3.156 1.124m287.356-16.796a4.99 4.99 0 0 1-3.757-1.698 148 148 0 0 0-13.66-13.646 5 5 0 0 1 6.586-7.526 158.5 158.5 0 0 1 14.584 14.57 5 5 0 0 1-3.753 8.3m-247.233-12.988a5 5 0 0 1-2.73-9.193 250 250 0 0 1 17.545-10.395 5 5 0 0 1 4.742 8.804 240 240 0 0 0-16.838 9.976 5 5 0 0 1-2.72.808m208.7-18.426a5 5 0 0 1-2.457-.65 145.5 145.5 0 0 0-17.4-8.355 5 5 0 0 1 3.724-9.28 156 156 0 0 1 18.6 8.932 5 5 0 0 1-2.467 9.353m-164.324-4.35a5 5 0 0 1-1.826-9.657 251 251 0 0 1 19.27-6.66 5 5 0 1 1 2.876 9.578 240 240 0 0 0-18.497 6.393 5 5 0 0 1-1.823.345m117.627-12.76a5 5 0 0 1-.976-.097 173 173 0 0 0-19.222-2.668 5 5 0 1 1 .823-9.966 183 183 0 0 1 20.338 2.824 5 5 0 0 1-.963 9.907m-69.572-.54a5 5 0 0 1-.804-9.936 222 222 0 0 1 20.296-2.389 5 5 0 0 1 .703 9.975 212 212 0 0 0-19.378 2.283 5 5 0 0 1-.817.066M4910.582 3036.94h-.063q-5.016-.065-10.027-.155a5 5 0 0 1 .088-9.999l.092.001q4.983.09 9.972.153a5 5 0 0 1-.062 10M4030.032 2103.48a37.28 37.28 0 1 1 37.28-37.28 37.32 37.32 0 0 1-37.28 37.28m0-59.27a21.99 21.99 0 1 0 21.99 21.99 22.015 22.015 0 0 0-21.99-21.99M1523.748 1331.393a37.332 37.332 0 1 1 37.332-37.332 37.374 37.374 0 0 1-37.332 37.332m0-59.353a22.021 22.021 0 1 0 22.021 22.021 22.046 22.046 0 0 0-22.02-22.02M1098.955 2930.322h-19.66V2902.6a5.578 5.578 0 0 0-11.158 0v27.723h-19.66a5.578 5.578 0 1 0 0 11.157h19.66v27.723a5.578 5.578 0 1 0 11.157 0v-27.723h19.66a5.578 5.578 0 0 0 0-11.157M3784.832 669.962h-29.509V628.35a8.373 8.373 0 1 0-16.745 0v41.61h-29.509a8.373 8.373 0 1 0 0 16.746h29.509v41.611a8.373 8.373 0 1 0 16.745 0v-41.61h29.509a8.373 8.373 0 0 0 0-16.746M1691.238 828.13h-91.354a12.576 12.576 0 0 1 0-25.151h91.354a12.576 12.576 0 0 1 0 25.151M1807.184 712.184a12.575 12.575 0 0 1-12.575-12.576v-91.354a12.576 12.576 0 0 1 25.151 0v91.354a12.575 12.575 0 0 1-12.576 12.576M1723.356 744.302a12.54 12.54 0 0 1-8.892-3.684l-62.755-62.755a12.576 12.576 0 0 1 17.784-17.784l62.756 62.755a12.576 12.576 0 0 1-8.893 21.468"/><path fill="#262f5f" d="M1367.571 3229.715h2764.85a16.13 16.13 0 0 1 16.13 16.13 16.13 16.13 0 0 1-16.13 16.128h-2764.85a16.13 16.13 0 0 1-16.129-16.129 16.13 16.13 0 0 1 16.13-16.13"/><path fill="#2f396d" d="M3690.239 996.84v2064.17a168.68 168.68 0 0 1-168.67 168.7h-1543.15c-1.02 0-2.04-.01-3.05-.03a168.56 168.56 0 0 1-165.61-168.67V996.84c0-93.18 75.52-168.71 168.66-168.71h1543.15a168.69 168.69 0 0 1 168.67 168.71"/><path fill="#262f5f" d="M3690.241 1231.718v1829.294a168.69 168.69 0 0 1-168.668 168.703H2174.299c1495.11-68.735 1515.943-1997.997 1515.943-1997.997"/><path fill="#fff" d="M1998.36 961.854v1986.063l114.445 114.446h1388.826V961.854z"/><path fill="#9ebee5" d="m2112.806 3062.363-114.446-114.446h114.446z"/><circle cx="2305.361" cy="2721.513" r="158.766" fill="#749dd3" transform="rotate(-45 2305.36 2721.513)"/><path fill="#fff" d="m2281.779 2804.748-66.089-71.596 30.541-28.192 33.432 36.217 83.021-102.9 32.348 26.1z"/><path fill="#2f396d" d="M2590.168 2624.474h539.89a27.61 27.61 0 0 1 27.608 27.607 27.61 27.61 0 0 1-27.608 27.609h-539.89a27.61 27.61 0 0 1-27.608-27.608 27.61 27.61 0 0 1 27.608-27.608"/><path fill="#749dd3" d="M2590.168 2763.337h639.408a27.61 27.61 0 0 1 27.608 27.608 27.61 27.61 0 0 1-27.608 27.608h-639.408a27.61 27.61 0 0 1-27.608-27.608 27.61 27.61 0 0 1 27.608-27.608"/><circle cx="2305.361" cy="2252.647" r="158.766" fill="#749dd3"/><path fill="#fff" d="m2281.779 2335.882-66.089-71.596 30.541-28.192 33.432 36.217 83.021-102.9 32.348 26.1z"/><path fill="#749dd3" d="M3130.058 2349.686h-539.89a27.61 27.61 0 0 1-27.608-27.608 27.61 27.61 0 0 1 27.608-27.608h539.89a27.61 27.61 0 0 1 27.608 27.608 27.61 27.61 0 0 1-27.608 27.608"/><path fill="#2f396d" d="M2590.168 2155.607h639.408a27.61 27.61 0 0 1 27.608 27.608 27.61 27.61 0 0 1-27.608 27.608h-639.408a27.61 27.61 0 0 1-27.608-27.608 27.61 27.61 0 0 1 27.608-27.608"/><path fill="#262f5f" d="M2305.36 2445.202c-106.174 0-192.554-86.38-192.554-192.555s86.38-192.555 192.555-192.555 192.555 86.38 192.555 192.555-86.38 192.555-192.555 192.555m0-372.394c-99.163 0-179.838 80.675-179.838 179.839s80.675 179.839 179.839 179.839 179.84-80.675 179.84-179.84-80.676-179.838-179.84-179.838"/><circle cx="2305.361" cy="1783.781" r="158.766" fill="#749dd3" transform="rotate(-45 2305.36 1783.78)"/><path fill="#fff" d="m2281.779 1867.016-66.089-71.597 30.541-28.192 33.432 36.218 83.021-102.9 32.348 26.099z"/><path fill="#749dd3" d="M2590.168 1686.741h371.693a27.61 27.61 0 0 1 27.608 27.608 27.61 27.61 0 0 1-27.608 27.608h-371.693a27.61 27.61 0 0 1-27.608-27.608 27.61 27.61 0 0 1 27.608-27.608"/><path fill="#2f396d" d="M2590.168 1825.604h539.89a27.61 27.61 0 0 1 27.608 27.608 27.61 27.61 0 0 1-27.608 27.608h-539.89a27.61 27.61 0 0 1-27.608-27.607 27.61 27.61 0 0 1 27.608-27.609"/><circle cx="2305.361" cy="1348.704" r="158.766" fill="#749dd3" transform="rotate(-45 2305.36 1348.704)"/><path fill="#fff" d="m2281.779 1431.939-66.089-71.597 30.541-28.191 33.432 36.217 83.021-102.9 32.348 26.1z"/><path fill="#2f396d" d="M2590.168 1251.664h539.89a27.61 27.61 0 0 1 27.608 27.608 27.61 27.61 0 0 1-27.608 27.608h-539.89a27.61 27.61 0 0 1-27.608-27.608 27.61 27.61 0 0 1 27.608-27.608"/><path fill="#749dd3" d="M2590.168 1390.527h639.408a27.61 27.61 0 0 1 27.608 27.608 27.61 27.61 0 0 1-27.608 27.608h-639.408a27.61 27.61 0 0 1-27.608-27.608 27.61 27.61 0 0 1 27.608-27.608"/><path fill="#9ebee5" d="M3037.775 770.285h-150.013a31.8 31.8 0 0 1-31.799-31.8 43.93 43.93 0 0 0-43.8-43.799H2687.83a43.93 43.93 0 0 0-43.8 43.8 31.8 31.8 0 0 1-31.798 31.8H2462.23a32.02 32.02 0 0 0-32.045 32.044v192.655a31.98 31.98 0 0 0 16.739 28.146 31.23 31.23 0 0 0 15.306 3.922h575.545a32.06 32.06 0 0 0 32.033-32.068V802.33a32.04 32.04 0 0 0-32.033-32.045"/><path fill="#fff" d="M3031.488 1002.674h-20.062a5 5 0 0 1 0-10h20.11a5 5 0 0 1 .026 10zm-50.155 0h-20.063a5 5 0 0 1 0-10h20.063a5 5 0 0 1 0 10m-50.156 0h-20.062a5 5 0 0 1 0-10h20.062a5 5 0 0 1 0 10m-50.156 0h-20.062a5 5 0 0 1 0-10h20.063a5 5 0 0 1 0 10m-50.155 0h-20.062a5 5 0 0 1 0-10h20.062a5 5 0 0 1 0 10m-50.156 0h-20.062a5 5 0 0 1 0-10h20.062a5 5 0 0 1 0 10m-50.155 0h-20.062a5 5 0 0 1 0-10h20.062a5 5 0 0 1 0 10m-50.156 0h-20.062a5 5 0 0 1 0-10h20.062a5 5 0 0 1 0 10m-50.155 0h-20.062a5 5 0 0 1 0-10h20.062a5 5 0 0 1 0 10m-50.156 0h-20.062a5 5 0 0 1 0-10h20.062a5 5 0 0 1 0 10m-50.155 0h-20.063a5 5 0 0 1 0-10h20.063a5 5 0 0 1 0 10m-50.156 0h-11.268a16.63 16.63 0 0 1-11.398-4.512 5 5 0 0 1 6.833-7.302 6.66 6.66 0 0 0 4.565 1.814h11.268a5 5 0 0 1 0 10m563.413-23.467a5 5 0 0 1-5-5v-20.062a5 5 0 1 1 10 0v20.062a5 5 0 0 1-5 5m-586.382-8.746a5 5 0 0 1-5-5v-20.062a5 5 0 0 1 10 0v20.062a5 5 0 0 1-5 5m586.382-41.41a5 5 0 0 1-5-5V903.99a5 5 0 0 1 10 0v20.062a5 5 0 0 1-5 5m-586.382-8.745a5 5 0 0 1-5-5v-20.063a5 5 0 1 1 10 0v20.063a5 5 0 0 1-5 5m586.382-41.41a5 5 0 0 1-5-5v-20.062a5 5 0 0 1 10 0v20.062a5 5 0 0 1-5 5m-586.382-8.746a5 5 0 0 1-5-5v-20.062a5 5 0 0 1 10 0v20.062a5 5 0 0 1-5 5m586.382-41.41a5 5 0 0 1-5-5V808.27a6.6 6.6 0 0 0-.51-2.547 5 5 0 0 1 9.231-3.849 16.55 16.55 0 0 1 1.279 6.396v15.471a5 5 0 0 1-5 5m-586.382-8.745a5 5 0 0 1-5-5v-6.726a16.78 16.78 0 0 1 9.718-15.165 5 5 0 1 1 4.201 9.075 6.75 6.75 0 0 0-3.92 6.09v6.726a5 5 0 0 1-5 5m558.372-18.428h-20.062a5 5 0 0 1 0-10h20.062a5 5 0 0 1 0 10m-50.156 0h-20.062a5 5 0 0 1 0-10h20.062a5 5 0 0 1 0 10m-50.155 0h-20.062a5 5 0 0 1 0-10h20.062a5 5 0 0 1 0 10m-50.155 0h-20.063a5 5 0 0 1 0-10h20.063a5 5 0 0 1 0 10m-50.156 0h-20.063a5 5 0 0 1 0-10h20.063a5 5 0 0 1 0 10m-50.156 0h-20.062a5 5 0 0 1 0-10h20.062a5 5 0 0 1 0 10m-50.155 0h-20.062a5 5 0 0 1 0-10h20.062a5 5 0 0 1 0 10m-50.156 0h-20.062a5 5 0 0 1 0-10h20.062a5 5 0 0 1 0 10m-50.155 0h-20.062a5 5 0 0 1 0-10h20.062a5 5 0 0 1 0 10m-50.156 0h-20.062a5 5 0 0 1 0-10h20.062a5 5 0 0 1 0 10m-50.155 0h-20.063a5 5 0 0 1 0-10h20.063a5 5 0 0 1 0 10"/><path fill="#9ebee5" d="M1669.061 3158.628h827.06v71.06h-827.06z"/><path fill="#749dd3" d="M2496.12 3158.628h47.929a10.605 10.605 0 0 1 10.605 10.605v49.85a10.605 10.605 0 0 1-10.605 10.605h-47.928zM1669.058 3158.606v71.104l-62.425-20.811-44.202-14.741 44.202-14.742z"/><path fill="#2f396d" d="M1606.633 3179.416v29.483l-44.202-14.741z"/></svg>